<svg width="820" height="312" viewBox="0 0 820 312" fill="none" xmlns="http://www.w3.org/2000/svg">
<rect width="820" height="312" fill="#8257E5"/>
<g clip-path="url(#clip0)">
<path d="M265.759 97.3721H213.803C199.978 97.3721 193 104.083 193 117.377V188.522C193 190.265 193.936 191.338 195.952 191.338H211.658C213.537 191.338 214.747 190.265 214.747 188.522V185.821C214.747 179.231 217.524 175.64 224.426 174.948H265.759C280.924 174.948 287.772 168.373 287.772 154.007V118.312C287.772 103.946 280.924 97.3721 265.759 97.3721ZM266.048 147.965C266.048 155.757 264.283 157.363 255.015 157.363H233.001C223.741 157.363 217.829 160.452 214.739 166.494V122.612C214.739 116.57 216.215 114.957 223.596 114.957H255.015C264.283 114.957 266.048 116.57 266.048 124.354V147.965Z" fill="white"/>
<path d="M337.574 136.704C325.628 136.704 320.522 142.745 320.522 152.949V188.788C320.522 190.402 319.715 191.337 317.836 191.337H303.607C301.727 191.337 300.791 190.402 300.791 188.788V123.281C300.791 121.668 301.727 120.724 303.607 120.724H315.553C317.303 120.724 318.239 121.668 318.239 123.281V133.85C320.522 125.13 327.104 120.694 338.784 120.694H343.616C345.358 120.694 346.294 121.638 346.294 123.251V134.155C346.294 135.897 345.358 136.704 343.616 136.704H337.574Z" fill="white"/>
<path d="M430.193 172.14C430.193 185.433 424.288 191.338 410.196 191.338H375.293C361.33 191.338 355.288 185.433 355.288 172.14V139.938C355.288 126.652 361.33 120.74 375.293 120.74H410.196C424.288 120.74 430.193 126.652 430.193 139.938V172.14ZM410.462 145.028C410.462 138.043 409.123 136.704 400.799 136.704H384.819C376.366 136.704 375.019 138.043 375.019 145.028V167.042C375.019 174.019 376.366 175.366 384.819 175.366H400.799C409.123 175.366 410.462 174.019 410.462 167.042V145.028Z" fill="white"/>
<path d="M450.06 136.704H443.341C441.591 136.704 440.655 135.897 440.655 134.155V123.281C440.655 121.668 441.591 120.725 443.341 120.725H450.053V112.004C450.06 98.7113 457.038 92 470.864 92H487.376C489.255 92 490.062 92.9435 490.062 94.5491V105.423C490.062 107.173 489.255 107.972 487.376 107.972H478.655C471.267 107.972 469.791 109.585 469.791 115.626V120.725H487.376C489.255 120.725 490.062 121.668 490.062 123.281V134.155C490.062 135.897 489.255 136.704 487.376 136.704H469.791V188.788C469.791 190.402 468.855 191.338 466.975 191.338H452.746C450.867 191.338 450.06 190.402 450.06 188.788V136.704Z" fill="white"/>
<path d="M504.831 136.704H498.127C496.385 136.704 495.449 135.897 495.449 134.155V123.281C495.449 121.668 496.385 120.725 498.127 120.725H504.846V112.004C504.831 98.7113 511.824 92 525.634 92H542.146C544.026 92 544.832 92.9435 544.832 94.5491V105.423C544.832 107.173 544.026 107.972 542.146 107.972H533.419C526.038 107.972 524.562 109.585 524.562 115.626V120.725H542.146C544.026 120.725 544.832 121.668 544.832 123.281V134.155C544.832 135.897 544.026 136.704 542.146 136.704H524.562V188.788C524.562 190.402 523.618 191.338 521.739 191.338H507.509C505.63 191.338 504.831 190.402 504.831 188.788V136.704Z" fill="white"/>
<path d="M604.831 218.723H575.566C562.417 218.723 556.779 213.625 556.779 201.001V199.662C556.74 199.302 556.782 198.937 556.904 198.596C557.025 198.254 557.221 197.944 557.479 197.689C557.736 197.434 558.047 197.24 558.39 197.122C558.733 197.004 559.097 196.964 559.457 197.006H573.154C575.033 197.006 575.969 197.95 575.969 199.692V200.362C575.969 203.048 577.453 204.121 580.405 204.121H597.32C605.371 204.121 607.387 202.112 607.387 195.264V174.088C604.298 180.129 598.393 183.219 589.125 183.219H575.429C561.466 183.219 555.287 177.314 555.287 164.021V123.281C555.269 122.93 555.327 122.578 555.458 122.251C555.588 121.923 555.788 121.628 556.043 121.385C556.298 121.143 556.602 120.958 556.936 120.844C557.269 120.73 557.623 120.689 557.973 120.725H572.34C574.082 120.725 575.026 121.668 575.026 123.281V158.961C575.026 165.938 576.502 167.285 584.826 167.285H595.03C603.887 167.285 607.38 163.656 607.38 156.275V123.281C607.38 121.668 608.316 120.725 610.066 120.725H624.439C624.783 120.691 625.13 120.735 625.455 120.852C625.78 120.969 626.075 121.156 626.318 121.4C626.562 121.645 626.749 121.94 626.864 122.266C626.98 122.591 627.023 122.938 626.989 123.281V197.379C626.981 211.464 619.463 218.723 604.831 218.723Z" fill="white"/>
</g>
<defs>
<clipPath id="clip0">
<rect width="434" height="127" fill="white" transform="translate(193 92)"/>
</clipPath>
</defs>
</svg>
